<svg width="79" height="92" viewBox="0 0 79 92" fill="none" xmlns="http://www.w3.org/2000/svg">
<rect width="79" height="92" rx="10" fill="#FFCD6C"/>
<mask id="mask0_1_490" style="mask-type:alpha" maskUnits="userSpaceOnUse" x="0" y="0" width="79" height="92">
<rect width="79" height="92" rx="10" fill="#BDACAC"/>
</mask>
<g mask="url(#mask0_1_490)">
<g clip-path="url(#clip0_1_490)">
<path d="M55.7196 39.6429L41.6711 58.3275L48.5456 62.3993L55.7196 39.6429Z" fill="#00B6AA"/>
<path d="M72.7504 72.1814L69.8312 108.926H51.0413L55.2624 92.0524L49.0344 92.0076L41.9077 109H24.3386L42.0451 71.2972" fill="#171766"/>
<path d="M55.7196 39.6431L41.6711 73.3031C41.6711 73.3031 65.475 81.7422 78.8162 74.7313L74.2572 40.2699L55.7196 39.6431Z" fill="#171766"/>
<path d="M70.8943 31.4858L62.6324 32.4976L62.1571 37.8363C64.7947 37.3081 67.4368 36.7999 70.0924 36.3343L70.8943 31.4858Z" fill="#171766"/>
<path d="M71.4146 40.0816L70.7749 46.7165L64.6258 53.0961L63.6234 54.137L63.3509 53.4543L60.5353 46.4165L60.7561 39.2937H68.7568L71.4146 40.0816Z" fill="white"/>
<path d="M62.1593 37.8363L61.925 40.4687L65.4344 44.113L69.3671 40.7598L70.0969 36.3365C67.4368 36.7999 64.7947 37.308 62.1593 37.8363Z" fill="#F2583E"/>
<path d="M75.7531 26.5598C76.624 21.3011 73.0404 16.3364 67.7489 15.4709C62.4574 14.6054 57.4617 18.1668 56.5908 23.4255C55.7199 28.6842 59.3035 33.6489 64.595 34.5144C69.8865 35.3799 74.8821 31.8185 75.7531 26.5598Z" fill="#F2583E"/>
<path d="M70.398 30.0677C70.5933 28.8756 69.7792 27.7518 68.5796 27.5577C67.3801 27.3636 66.2493 28.1727 66.054 29.3648C65.8586 30.5569 66.6728 31.6807 67.8723 31.8748C69.0719 32.0689 70.2027 31.2599 70.398 30.0677Z" fill="#F6EF97"/>
<path d="M63.5266 15.7984C62.5715 15.8701 61.6143 15.9417 60.657 16.0133C60.4002 16.0335 60.1367 16.0536 59.9047 16.1633C59.6727 16.273 59.4744 16.4968 59.4722 16.752C59.4699 17.0296 59.6839 17.2579 59.9069 17.4236C60.5714 17.9205 61.4431 18.1399 62.2652 18.0145C61.9476 18.4465 61.2606 18.7107 61.3169 19.2434C61.3597 19.6509 61.835 19.8546 62.2427 19.915C62.9522 20.0202 63.6865 19.9441 64.3577 19.6934C64.2474 20.1097 64.1437 20.5753 64.3555 20.9492C64.565 21.323 65.0245 21.4842 65.4547 21.5379C67.0922 21.7416 68.6396 20.844 70.0587 20.0068C70.2389 19.8993 70.4821 19.7964 70.642 19.9307C70.7344 20.0068 70.7592 20.1321 70.7772 20.2508C71.034 21.9251 70.6421 23.6264 70.6533 25.3187C70.6578 26.1603 70.802 27.0781 71.4259 27.6467C71.8922 28.072 72.5499 28.2242 73.1806 28.2824C73.8225 28.3406 74.5005 28.3115 75.0613 27.9959C75.4285 27.79 75.7213 27.4721 75.9713 27.1341C76.7935 26.0193 77.1967 24.5598 76.8498 23.2212C76.7349 22.7802 76.5367 22.3482 76.2101 22.0281" fill="#00B6AA"/>
<path d="M74.845 32.4975C76.859 32.4975 78.4917 30.8749 78.4917 28.8734C78.4917 26.8718 76.859 25.2493 74.845 25.2493C72.831 25.2493 71.1983 26.8718 71.1983 28.8734C71.1983 30.8749 72.831 32.4975 74.845 32.4975Z" fill="#F2583E"/>
<path d="M78.0459 15.7471L77.4873 17.9901L76.5457 21.7574L63.5041 15.7471L65.3308 13.6609L67.7409 10.9053C67.7409 10.9053 74.3091 11.3799 78.0459 15.7471Z" fill="#171766"/>
<path d="M77.4873 17.9901L76.5457 21.7575L63.5041 15.7471L65.3308 13.6609L77.4873 17.9901Z" fill="#00B6AA"/>
<path d="M60.389 13.1998L81.4223 23.0177C81.4223 23.0177 79.6 26.747 67.7409 20.3293C59.6028 15.9262 60.389 13.1998 60.389 13.1998Z" fill="#171766"/>
<path d="M57.9045 21.0164C57.9045 21.0164 56.7558 23.5257 58.5239 24.0943C60.2921 24.6629 61.7246 22.4647 61.7246 22.4647C61.7246 22.4647 59.5893 24.0988 58.4811 23.1676C57.6612 22.4804 57.9045 21.0164 57.9045 21.0164Z" fill="#171766"/>
<path d="M64.7069 23.9399C64.7069 23.9399 63.5581 26.4493 65.3263 27.0178C67.0945 27.5864 68.527 25.3882 68.527 25.3882C68.527 25.3882 66.3917 27.0223 65.2835 26.0911C64.4613 25.4039 64.7069 23.9399 64.7069 23.9399Z" fill="#171766"/>
<path d="M63.7158 21.3521L59.4722 25.2001L61.594 26.7871L64.146 21.7573L63.7158 21.3521Z" fill="#FFB459"/>
<path d="M72.9981 30.3309L72.7504 27.797L76.7462 26.4517V27.112L73.4283 28.1619L74.1041 30.5749L72.9981 30.3309Z" fill="#171766"/>
<path d="M65.4344 44.1111L63.2157 46.0809L60.1276 38.9357L62.1593 37.8366L65.4344 44.1111Z" fill="#00B6AA"/>
<path d="M66.903 46.7164L65.4344 44.1108L69.7591 38.3668L72.0183 40.1218L66.903 46.7164Z" fill="#00B6AA"/>
<path d="M65.975 44.111L64.6258 53.0963L63.6234 54.1372L63.3509 53.4544L65.0582 44.111H65.975Z" fill="#00B6AA"/>
<path d="M59.7087 31.356C59.7087 31.356 55.0574 31.8776 52.9649 33.8161C52.154 34.5705 51.6247 37.5611 51.0323 41.9395C51.03 41.9463 51.03 41.953 51.0278 41.9597C50.093 48.8542 48.9893 59.1736 46.3449 69.6161C42.0135 86.7069 31.2581 92.8224 31.2581 92.8224C23.8273 92.4665 18.3403 90.7473 14.3152 88.2357C3.55306 81.5226 3.24898 69.1527 4.22429 62.0814C2.78273 59.1221 3.28277 54.8265 3.40665 54.7929C9.51753 53.2013 15.7523 56.2591 20.4306 59.684C22.0681 60.8838 23.5164 62.1284 24.699 63.232C26.5753 64.9847 27.7938 66.386 28.0664 66.7016V66.7038C28.1047 66.7486 28.1227 66.771 28.1227 66.771L24.467 70.4488L26.1811 74.2788C26.1811 74.2788 47.3293 34.0176 51.0345 31.112C56.7467 28.8736 58.6095 29.3638 58.6095 29.3638L59.7087 31.356Z" fill="#F6EF97"/>
<path d="M44.8892 45.539C45.79 44.6438 45.79 43.1925 44.8893 42.2974C43.9885 41.4022 42.5281 41.4022 41.6274 42.2974C40.7267 43.1925 40.7267 44.6438 41.6274 45.539C42.5281 46.4342 43.9885 46.4341 44.8892 45.539Z" fill="#FFB459"/>
<path d="M48.0204 40.6389C48.9211 39.7438 48.9211 38.2924 48.0204 37.3973C47.1197 36.5021 45.6593 36.5021 44.7586 37.3973C43.8578 38.2924 43.8578 39.7438 44.7586 40.6389C45.6593 41.5341 47.1197 41.5341 48.0204 40.6389Z" fill="#FFB459"/>
<path d="M42.4261 49.5803C42.7174 48.3479 41.9483 47.1141 40.7082 46.8246C39.4681 46.5351 38.2267 47.2994 37.9353 48.5318C37.644 49.7642 38.4131 50.998 39.6532 51.2875C40.8933 51.5771 42.1348 50.8127 42.4261 49.5803Z" fill="#FFB459"/>
<path d="M39.3522 54.7299C39.6462 53.4982 38.8797 52.2628 37.6403 51.9706C36.4008 51.6784 35.1577 52.4401 34.8637 53.6718C34.5697 54.9036 35.3361 56.139 36.5756 56.4312C37.815 56.7234 39.0581 55.9617 39.3522 54.7299Z" fill="#FFB459"/>
<path d="M36.2784 59.8703C36.5724 58.6386 35.806 57.4031 34.5665 57.111C33.3271 56.8188 32.084 57.5805 31.79 58.8122C31.496 60.044 32.2624 61.2794 33.5019 61.5716C34.7413 61.8638 35.9844 61.1021 36.2784 59.8703Z" fill="#FFB459"/>
<path d="M33.2012 65.0002C33.4925 63.7678 32.7234 62.534 31.4833 62.2445C30.2432 61.955 29.0017 62.7193 28.7104 63.9517C28.4191 65.1841 29.1882 66.4179 30.4283 66.7074C31.6684 66.9969 32.9098 66.2326 33.2012 65.0002Z" fill="#FFB459"/>
<path d="M47.0184 34.6599L53.0392 37.1625L54.3456 35.9112L47.9351 33.2609" fill="#F2583E"/>
<path d="M51.0278 41.9598C50.093 48.8543 48.9893 59.1737 46.345 69.6162C42.0135 86.7069 31.2581 92.8225 31.2581 92.8225C31.2581 92.8225 25.0774 90.922 22.6403 88.2358L30.6184 89.5229C30.6184 89.5229 48.7258 55.8428 51.0278 41.9598Z" fill="#FFB459"/>
<path d="M20.4307 59.6841C18.2615 62.3367 16.3965 65.2288 15.0451 68.3671C13.2116 72.6247 12.8489 77.8896 13.153 82.5098C13.2814 84.4573 13.6778 86.3891 14.3175 88.2359C3.55535 81.5227 3.25127 69.1528 4.22658 62.0815C2.78276 59.1222 3.28506 54.8266 3.40669 54.793C9.51982 53.2014 15.7523 56.2592 20.4307 59.6841Z" fill="#FFB459"/>
<path d="M28.0664 66.7014L24.467 70.4486C7.05562 71.3664 5.18384 58.269 5.18384 58.269L16.151 59.2137L24.6967 63.2317C26.5753 64.9845 27.7939 66.3857 28.0664 66.7014Z" fill="#FFB459"/>
<path d="M28.1227 66.7709C9.78785 72.2798 3.40668 54.7928 3.40668 54.7928C15.5293 51.6343 28.1227 66.7709 28.1227 66.7709Z" fill="#171766"/>
<path d="M57.8662 27.5284L59.1659 32.5403L60.3394 32.0904L59.5555 27.5284H57.8662Z" fill="#171766"/>
<path d="M60.7245 27.8998L58.801 28.6811L59.4316 30.6845L61.5782 31.0785L60.7245 27.8998Z" fill="#171766"/>
<path d="M10.8758 36.1868C4.04411 46.0607 12.0515 56.313 17.7637 65.0318C16.9416 64.949 16.1217 64.799 15.4054 64.5326C12.68 63.5276 -0.699536 52.221 1.41776 41.6241C2.18134 37.7895 4.0779 34.2998 5.45189 30.6376C6.82588 26.9732 7.43403 22.6104 5.26493 19.349C4.47883 18.1648 3.38639 17.2224 2.33 16.2711C-0.426991 13.7931 -3.08262 11.089 -4.72465 7.77603C-6.36668 4.46085 -6.87573 0.420394 -5.29001 -2.92165L1.57994 -3H15.0428C13.3985 0.207739 13.3129 4.08926 15.6059 7.75813C18.0836 11.3397 21.0118 14.2497 20.5613 18.7267C19.8855 25.6659 14.7049 30.3668 10.8758 36.1868Z" fill="#00B6AA"/>
<path d="M50.2935 12.0112C43.9867 14.2497 34.9769 14.6974 34.3012 22.7559C33.8507 28.1283 34.3012 34.396 29.1206 37.5299C25.0662 39.7684 20.3361 41.1114 18.3089 45.3646C15.696 51.5293 16.6376 59.1043 20.0095 65.1102C19.3202 65.1258 18.5409 65.1102 17.7638 65.0318C12.0516 56.313 4.04415 46.0607 10.8758 36.1868C14.705 30.3668 19.8856 25.6659 20.5613 18.7267C21.0118 14.2497 18.0836 11.3397 15.6059 7.75813C13.3129 4.08926 13.3985 0.207739 15.0428 -3H58.8123C59.1727 3.23192 56.258 9.85558 50.2935 12.0112Z" fill="#7BD6AA"/>
<path d="M85.6906 -3C84.6072 0.386817 83.3526 3.74677 81.366 6.69485C79.1901 9.92049 76.0209 12.6425 72.2188 13.5468C69.8852 14.102 67.4481 13.9542 65.056 14.1423C62.6639 14.3303 60.1502 14.9369 58.4879 16.6561C56.6184 18.5856 56.1859 21.527 54.4515 23.5752C50.8228 27.8686 43.4303 26.4807 39.1642 30.1496C34.6278 34.049 35.2877 42.2128 30.1139 45.2325C28.0844 46.4166 19.2458 48.4357 19.0431 54.2894C18.8764 59.1289 22.379 64.9355 22.379 64.9355C22.379 64.9355 21.3654 65.0788 20.0094 65.1102C16.6375 59.1043 15.696 51.5293 18.3088 45.3645C20.336 41.1114 25.0661 39.7683 29.1205 37.5299C34.3012 34.396 33.8507 28.1283 34.3012 22.7559C34.9769 14.6974 43.9867 14.2497 50.2935 12.0112C56.258 9.85558 59.1726 3.23192 58.8122 -3H85.6906Z" fill="#00B6AA"/>
<path d="M86.9948 70.4937C86.1411 75.3198 82.2444 79.893 76.5007 82.9866C69.6893 86.6555 60.2808 88.2426 50.2777 85.7019C48.4443 85.2363 46.5905 84.6319 44.73 83.8753L52.1923 63.5118C53.5978 63.8118 55.0799 64.1028 56.5778 64.3557C63.4162 65.513 70.6263 65.8958 72.7503 63.0037C77.1133 57.0673 72.7503 46.083 72.7503 46.083C72.7503 46.083 70.7412 43.6364 74.2572 40.2697C74.2572 40.2697 85.7289 53.0313 87.1097 65.1885C87.3146 66.9837 87.3011 68.7678 86.9948 70.4937Z" fill="#00B6AA"/>
<path d="M48.2123 62.1888L47.0185 54.3586L45.5656 53.7251L44.498 58.7483L37.8465 53.5192L36.7338 55.104L40.1823 59.8832L34.8012 58.1954L33.5466 60.7853L39.8354 64.4788L31.4653 64.3579L30.9563 66.3904L49.111 73.6207L52.7487 66.3904L48.2123 62.1888Z" fill="#F1573D"/>
<path d="M31.4653 66.122L31.7244 64.479C31.7244 64.479 33.265 64.9401 33.1119 65.7706C32.961 66.6011 31.4653 66.122 31.4653 66.122Z" fill="#171766"/>
<path d="M34.4498 60.3868L35.1886 58.7773C35.1886 58.7773 37.0627 59.91 36.8329 60.689C36.6077 61.468 34.4498 60.3868 34.4498 60.3868Z" fill="#171766"/>
<path d="M37.3397 55.1801L38.0988 54.1996C38.0988 54.1996 39.9728 55.6322 39.3129 56.2747C38.6574 56.9149 37.3397 55.1801 37.3397 55.1801Z" fill="#171766"/>
<path d="M45.845 54.4752L47.059 54.8535C47.059 54.8535 47.3631 57.092 46.7054 56.942C46.0477 56.7898 45.845 54.4752 45.845 54.4752Z" fill="#171766"/>
<path d="M57.5373 61.101L56.5778 64.3557L50.2777 85.7019L49.1492 89.5229L43.8042 86.398L44.73 83.8753L52.1923 63.5118L53.5235 59.8833L57.5373 61.101Z" fill="white"/>
<path d="M86.9948 70.4938C86.1411 75.3199 82.2444 79.8932 76.5007 82.9867C75.2641 80.2647 75.0298 77.0906 75.9263 74.2343C77.2575 69.9857 81.0078 66.6548 85.3302 65.493C85.9001 65.3386 86.506 65.2289 87.1097 65.1886C87.3146 66.9839 87.3011 68.7679 86.9948 70.4938Z" fill="#FFB459"/>
<path d="M37.1077 50.0743L31.7266 46.5957L38.8714 33.7804L43.8042 34.6602L37.1077 50.0743Z" fill="white"/>
<path d="M38.547 36.2001L46.4531 35.213L47.4622 36.4307L42.8897 38.8169L49.7597 43.7572L48.5276 45.2525L42.9641 43.2513L46.0589 47.9409L43.8943 49.8436L38.6078 44.8317L40.9999 52.8051L39.1687 53.8438L33.5826 46.6359" fill="#F1573D"/>
<path d="M39.2904 53.2842L40.8108 52.588C40.8108 52.588 39.9458 51.2405 39.1845 51.6121C38.4209 51.9837 39.2904 53.2842 39.2904 53.2842Z" fill="#171766"/>
<path d="M44.0339 48.8725L45.3921 47.7286C45.3921 47.7286 43.7861 46.2445 43.0946 46.6743C42.4009 47.1041 44.0339 48.8725 44.0339 48.8725Z" fill="#171766"/>
<path d="M48.2911 44.6909L49.0344 43.697C49.0344 43.697 47.1379 42.2957 46.6941 43.0993C46.2526 43.9052 48.2911 44.6909 48.2911 44.6909Z" fill="#171766"/>
<path d="M46.6603 36.3658L45.9643 35.307C45.9643 35.307 43.7142 35.6249 44.0385 36.2136C44.3651 36.8023 46.6603 36.3658 46.6603 36.3658Z" fill="#171766"/>
<path d="M-9.33761 83.7856L-1.81671 87.6805L3.55311 76.5889L1.15876 95.354L-4.21106 92.0299L-12 105.344L-9.33761 83.7856Z" fill="#FFB459"/>
<path d="M9.42745 87.7996L12.3917 99.7172L5.47217 101.369L10.4996 107.388V102.195L18.0138 101.723L9.42745 87.7996Z" fill="#F6EF97"/>
<path d="M27.6588 58.3277L36.7001 51.8965L34.6909 49.1231L27.6588 58.3277Z" fill="#00B6AA"/>
<path d="M23.6179 56.2748L28.3548 41.3777L25.109 41.9598L23.6179 56.2748Z" fill="#F1573D"/>
<path d="M1.15877 53.7254L-9.58087 47.5203L-6.39592 42.9897L1.15877 53.7254Z" fill="#00B6AA"/>
<path d="M83.0148 29.7152L87.2471 35.4972L94.1193 27.8998L89.1842 42.9894L82.6611 35.4457L75.3857 39.0183L83.0148 29.7152Z" fill="#FFB459"/>
<path d="M74.7484 86.9423L89.8757 103.767L95.0001 96.9348L74.7484 86.9423Z" fill="#FFB459"/>
<path d="M78.8162 85.899L92.8849 88.2359V83.9716L78.8162 85.899Z" fill="#F6EF97"/>
<path d="M40.2026 31.4858C41.199 31.4858 42.0068 30.6831 42.0068 29.6928C42.0068 28.7025 41.199 27.8998 40.2026 27.8998C39.2061 27.8998 38.3984 28.7025 38.3984 29.6928C38.3984 30.6831 39.2061 31.4858 40.2026 31.4858Z" fill="#FFB459"/>
<path d="M-0.508201 65.8676C0.0317771 64.5979 -0.56619 63.1336 -1.8438 62.597C-3.12141 62.0603 -4.59485 62.6546 -5.13483 63.9243C-5.67481 65.194 -5.07684 66.6583 -3.79923 67.1949C-2.52162 67.7316 -1.04818 67.1373 -0.508201 65.8676Z" fill="#171766"/>
</g>
</g>
<defs>
<clipPath id="clip0_1_490">
<rect width="107" height="112" fill="white" transform="translate(-12 -3)"/>
</clipPath>
</defs>
</svg>
